<svg xmlns="http://www.w3.org/2000/svg" xmlns:xlink="http://www.w3.org/1999/xlink" width="200" zoomAndPan="magnify" viewBox="0 0 150 74.999997" height="100" preserveAspectRatio="xMidYMid meet" version="1.0"><defs><g/></defs><rect x="-15" width="180" fill="#ffffff" y="-7.5" height="89.999996" fill-opacity="1"/><rect x="-15" width="180" fill="#f4efd0" y="-7.5" height="89.999996" fill-opacity="1"/><g fill="#a29745" fill-opacity="1"><g transform="translate(7.118939, 44.049653)"><g><path d="M 5.546875 -20.9375 C 7.117188 -20.9375 8.28125 -20.46875 9.03125 -19.53125 C 9.78125 -18.59375 10.15625 -17.335938 10.15625 -15.765625 L 10.15625 -15.203125 L 7.96875 -15.203125 L 7.96875 -15.875 C 7.96875 -16.820312 7.78125 -17.550781 7.40625 -18.0625 C 7.03125 -18.582031 6.425781 -18.84375 5.59375 -18.84375 C 4.769531 -18.84375 4.171875 -18.582031 3.796875 -18.0625 C 3.421875 -17.550781 3.234375 -16.832031 3.234375 -15.90625 C 3.234375 -15.132812 3.40625 -14.460938 3.75 -13.890625 C 4.09375 -13.316406 4.519531 -12.785156 5.03125 -12.296875 C 5.550781 -11.816406 6.109375 -11.34375 6.703125 -10.875 C 7.304688 -10.414062 7.863281 -9.910156 8.375 -9.359375 C 8.894531 -8.804688 9.328125 -8.175781 9.671875 -7.46875 C 10.015625 -6.769531 10.1875 -5.941406 10.1875 -4.984375 C 10.1875 -3.398438 9.804688 -2.140625 9.046875 -1.203125 C 8.285156 -0.265625 7.109375 0.203125 5.515625 0.203125 C 3.910156 0.203125 2.734375 -0.265625 1.984375 -1.203125 C 1.234375 -2.140625 0.859375 -3.398438 0.859375 -4.984375 L 0.859375 -6.15625 L 3.015625 -6.15625 L 3.015625 -4.859375 C 3.015625 -3.910156 3.210938 -3.175781 3.609375 -2.65625 C 4.003906 -2.144531 4.617188 -1.890625 5.453125 -1.890625 C 6.273438 -1.890625 6.882812 -2.144531 7.28125 -2.65625 C 7.675781 -3.175781 7.875 -3.910156 7.875 -4.859375 C 7.875 -5.628906 7.703125 -6.296875 7.359375 -6.859375 C 7.015625 -7.421875 6.582031 -7.941406 6.0625 -8.421875 C 5.550781 -8.910156 5 -9.382812 4.40625 -9.84375 C 3.820312 -10.3125 3.269531 -10.820312 2.75 -11.375 C 2.238281 -11.925781 1.8125 -12.550781 1.46875 -13.25 C 1.125 -13.957031 0.953125 -14.796875 0.953125 -15.765625 C 0.953125 -17.359375 1.328125 -18.617188 2.078125 -19.546875 C 2.828125 -20.472656 3.984375 -20.9375 5.546875 -20.9375 Z M 5.546875 -20.9375 "/></g></g></g><g fill="#a29745" fill-opacity="1"><g transform="translate(18.133816, 44.049653)"><g><path d="M 3.53125 -4.171875 L 2.71875 0 L 0.59375 0 L 4.5625 -20.734375 L 7.90625 -20.734375 L 11.875 0 L 9.5625 0 L 8.765625 -4.171875 Z M 3.828125 -6.15625 L 8.4375 -6.15625 L 6.109375 -18.125 Z M 3.828125 -6.15625 "/></g></g></g><g fill="#a29745" fill-opacity="1"><g transform="translate(30.629187, 44.049653)"><g><path d="M 5.8125 -20.734375 C 7.445312 -20.734375 8.625 -20.328125 9.34375 -19.515625 C 10.0625 -18.710938 10.421875 -17.539062 10.421875 -16 L 10.421875 -14.3125 C 10.421875 -13.164062 10.210938 -12.234375 9.796875 -11.515625 C 9.390625 -10.804688 8.738281 -10.316406 7.84375 -10.046875 C 8.789062 -9.765625 9.460938 -9.253906 9.859375 -8.515625 C 10.253906 -7.773438 10.453125 -6.84375 10.453125 -5.71875 L 10.453125 -2.484375 C 10.453125 -2.035156 10.472656 -1.597656 10.515625 -1.171875 C 10.554688 -0.742188 10.675781 -0.351562 10.875 0 L 8.53125 0 C 8.394531 -0.289062 8.296875 -0.609375 8.234375 -0.953125 C 8.171875 -1.304688 8.140625 -1.828125 8.140625 -2.515625 L 8.140625 -5.78125 C 8.140625 -6.945312 7.878906 -7.75 7.359375 -8.1875 C 6.835938 -8.632812 6.09375 -8.859375 5.125 -8.859375 L 3.5 -8.859375 L 3.5 0 L 1.1875 0 L 1.1875 -20.734375 Z M 5.21875 -10.96875 C 6.144531 -10.96875 6.863281 -11.15625 7.375 -11.53125 C 7.882812 -11.914062 8.140625 -12.675781 8.140625 -13.8125 L 8.140625 -15.796875 C 8.140625 -16.742188 7.957031 -17.453125 7.59375 -17.921875 C 7.226562 -18.398438 6.613281 -18.640625 5.75 -18.640625 L 3.5 -18.640625 L 3.5 -10.96875 Z M 5.21875 -10.96875 "/></g></g></g><g fill="#a29745" fill-opacity="1"><g transform="translate(42.295484, 44.049653)"><g><path d="M 3.53125 -4.171875 L 2.71875 0 L 0.59375 0 L 4.5625 -20.734375 L 7.90625 -20.734375 L 11.875 0 L 9.5625 0 L 8.765625 -4.171875 Z M 3.828125 -6.15625 L 8.4375 -6.15625 L 6.109375 -18.125 Z M 3.828125 -6.15625 "/></g></g></g><g fill="#a29745" fill-opacity="1"><g transform="translate(54.790856, 44.049653)"><g/></g></g><g fill="#a29745" fill-opacity="1"><g transform="translate(59.380386, 44.049653)"><g><path d="M 5.65625 -20.9375 C 7.257812 -20.9375 8.441406 -20.460938 9.203125 -19.515625 C 9.960938 -18.566406 10.34375 -17.304688 10.34375 -15.734375 L 10.34375 -13.953125 L 8.140625 -13.953125 L 8.140625 -15.84375 C 8.140625 -16.789062 7.945312 -17.523438 7.5625 -18.046875 C 7.175781 -18.578125 6.5625 -18.84375 5.71875 -18.84375 C 4.882812 -18.84375 4.269531 -18.578125 3.875 -18.046875 C 3.476562 -17.523438 3.28125 -16.789062 3.28125 -15.84375 L 3.28125 -4.890625 C 3.28125 -3.941406 3.476562 -3.203125 3.875 -2.671875 C 4.269531 -2.148438 4.882812 -1.890625 5.71875 -1.890625 C 6.5625 -1.890625 7.175781 -2.148438 7.5625 -2.671875 C 7.945312 -3.203125 8.140625 -3.941406 8.140625 -4.890625 L 8.140625 -9.03125 L 6.015625 -9.03125 L 6.015625 -11.109375 L 10.34375 -11.109375 L 10.34375 -5 C 10.34375 -3.425781 9.960938 -2.164062 9.203125 -1.21875 C 8.441406 -0.269531 7.257812 0.203125 5.65625 0.203125 C 4.070312 0.203125 2.898438 -0.269531 2.140625 -1.21875 C 1.378906 -2.164062 1 -3.425781 1 -5 L 1 -15.734375 C 1 -16.523438 1.09375 -17.238281 1.28125 -17.875 C 1.46875 -18.519531 1.753906 -19.066406 2.140625 -19.515625 C 2.523438 -19.972656 3.007812 -20.320312 3.59375 -20.5625 C 4.175781 -20.8125 4.863281 -20.9375 5.65625 -20.9375 Z M 5.65625 -20.9375 "/></g></g></g><g fill="#a29745" fill-opacity="1"><g transform="translate(70.720973, 44.049653)"><g><path d="M 5.8125 -20.734375 C 7.445312 -20.734375 8.625 -20.328125 9.34375 -19.515625 C 10.0625 -18.710938 10.421875 -17.539062 10.421875 -16 L 10.421875 -14.3125 C 10.421875 -13.164062 10.210938 -12.234375 9.796875 -11.515625 C 9.390625 -10.804688 8.738281 -10.316406 7.84375 -10.046875 C 8.789062 -9.765625 9.460938 -9.253906 9.859375 -8.515625 C 10.253906 -7.773438 10.453125 -6.84375 10.453125 -5.71875 L 10.453125 -2.484375 C 10.453125 -2.035156 10.472656 -1.597656 10.515625 -1.171875 C 10.554688 -0.742188 10.675781 -0.351562 10.875 0 L 8.53125 0 C 8.394531 -0.289062 8.296875 -0.609375 8.234375 -0.953125 C 8.171875 -1.304688 8.140625 -1.828125 8.140625 -2.515625 L 8.140625 -5.78125 C 8.140625 -6.945312 7.878906 -7.75 7.359375 -8.1875 C 6.835938 -8.632812 6.09375 -8.859375 5.125 -8.859375 L 3.5 -8.859375 L 3.5 0 L 1.1875 0 L 1.1875 -20.734375 Z M 5.21875 -10.96875 C 6.144531 -10.96875 6.863281 -11.15625 7.375 -11.53125 C 7.882812 -11.914062 8.140625 -12.675781 8.140625 -13.8125 L 8.140625 -15.796875 C 8.140625 -16.742188 7.957031 -17.453125 7.59375 -17.921875 C 7.226562 -18.398438 6.613281 -18.640625 5.75 -18.640625 L 3.5 -18.640625 L 3.5 -10.96875 Z M 5.21875 -10.96875 "/></g></g></g><g fill="#a29745" fill-opacity="1"><g transform="translate(82.38727, 44.049653)"><g><path d="M 1 -15.734375 C 1 -17.328125 1.390625 -18.59375 2.171875 -19.53125 C 2.953125 -20.46875 4.144531 -20.9375 5.75 -20.9375 C 7.34375 -20.9375 8.535156 -20.46875 9.328125 -19.53125 C 10.117188 -18.59375 10.515625 -17.328125 10.515625 -15.734375 L 10.515625 -5 C 10.515625 -3.425781 10.117188 -2.164062 9.328125 -1.21875 C 8.535156 -0.269531 7.34375 0.203125 5.75 0.203125 C 4.144531 0.203125 2.953125 -0.269531 2.171875 -1.21875 C 1.390625 -2.164062 1 -3.425781 1 -5 Z M 3.28125 -4.890625 C 3.28125 -3.941406 3.484375 -3.203125 3.890625 -2.671875 C 4.296875 -2.148438 4.914062 -1.890625 5.75 -1.890625 C 6.59375 -1.890625 7.210938 -2.148438 7.609375 -2.671875 C 8.003906 -3.203125 8.203125 -3.941406 8.203125 -4.890625 L 8.203125 -15.84375 C 8.203125 -16.789062 8.003906 -17.523438 7.609375 -18.046875 C 7.210938 -18.578125 6.59375 -18.84375 5.75 -18.84375 C 4.914062 -18.84375 4.296875 -18.578125 3.890625 -18.046875 C 3.484375 -17.523438 3.28125 -16.789062 3.28125 -15.84375 Z M 3.28125 -4.890625 "/></g></g></g><g fill="#a29745" fill-opacity="1"><g transform="translate(93.90551, 44.049653)"><g><path d="M 5.546875 -20.9375 C 7.117188 -20.9375 8.28125 -20.46875 9.03125 -19.53125 C 9.78125 -18.59375 10.15625 -17.335938 10.15625 -15.765625 L 10.15625 -15.203125 L 7.96875 -15.203125 L 7.96875 -15.875 C 7.96875 -16.820312 7.78125 -17.550781 7.40625 -18.0625 C 7.03125 -18.582031 6.425781 -18.84375 5.59375 -18.84375 C 4.769531 -18.84375 4.171875 -18.582031 3.796875 -18.0625 C 3.421875 -17.550781 3.234375 -16.832031 3.234375 -15.90625 C 3.234375 -15.132812 3.40625 -14.460938 3.75 -13.890625 C 4.09375 -13.316406 4.519531 -12.785156 5.03125 -12.296875 C 5.550781 -11.816406 6.109375 -11.34375 6.703125 -10.875 C 7.304688 -10.414062 7.863281 -9.910156 8.375 -9.359375 C 8.894531 -8.804688 9.328125 -8.175781 9.671875 -7.46875 C 10.015625 -6.769531 10.1875 -5.941406 10.1875 -4.984375 C 10.1875 -3.398438 9.804688 -2.140625 9.046875 -1.203125 C 8.285156 -0.265625 7.109375 0.203125 5.515625 0.203125 C 3.910156 0.203125 2.734375 -0.265625 1.984375 -1.203125 C 1.234375 -2.140625 0.859375 -3.398438 0.859375 -4.984375 L 0.859375 -6.15625 L 3.015625 -6.15625 L 3.015625 -4.859375 C 3.015625 -3.910156 3.210938 -3.175781 3.609375 -2.65625 C 4.003906 -2.144531 4.617188 -1.890625 5.453125 -1.890625 C 6.273438 -1.890625 6.882812 -2.144531 7.28125 -2.65625 C 7.675781 -3.175781 7.875 -3.910156 7.875 -4.859375 C 7.875 -5.628906 7.703125 -6.296875 7.359375 -6.859375 C 7.015625 -7.421875 6.582031 -7.941406 6.0625 -8.421875 C 5.550781 -8.910156 5 -9.382812 4.40625 -9.84375 C 3.820312 -10.3125 3.269531 -10.820312 2.75 -11.375 C 2.238281 -11.925781 1.8125 -12.550781 1.46875 -13.25 C 1.125 -13.957031 0.953125 -14.796875 0.953125 -15.765625 C 0.953125 -17.359375 1.328125 -18.617188 2.078125 -19.546875 C 2.828125 -20.472656 3.984375 -20.9375 5.546875 -20.9375 Z M 5.546875 -20.9375 "/></g></g></g><g fill="#a29745" fill-opacity="1"><g transform="translate(104.920386, 44.049653)"><g><path d="M 5.546875 -20.9375 C 7.117188 -20.9375 8.28125 -20.46875 9.03125 -19.53125 C 9.78125 -18.59375 10.15625 -17.335938 10.15625 -15.765625 L 10.15625 -15.203125 L 7.96875 -15.203125 L 7.96875 -15.875 C 7.96875 -16.820312 7.78125 -17.550781 7.40625 -18.0625 C 7.03125 -18.582031 6.425781 -18.84375 5.59375 -18.84375 C 4.769531 -18.84375 4.171875 -18.582031 3.796875 -18.0625 C 3.421875 -17.550781 3.234375 -16.832031 3.234375 -15.90625 C 3.234375 -15.132812 3.40625 -14.460938 3.75 -13.890625 C 4.09375 -13.316406 4.519531 -12.785156 5.03125 -12.296875 C 5.550781 -11.816406 6.109375 -11.34375 6.703125 -10.875 C 7.304688 -10.414062 7.863281 -9.910156 8.375 -9.359375 C 8.894531 -8.804688 9.328125 -8.175781 9.671875 -7.46875 C 10.015625 -6.769531 10.1875 -5.941406 10.1875 -4.984375 C 10.1875 -3.398438 9.804688 -2.140625 9.046875 -1.203125 C 8.285156 -0.265625 7.109375 0.203125 5.515625 0.203125 C 3.910156 0.203125 2.734375 -0.265625 1.984375 -1.203125 C 1.234375 -2.140625 0.859375 -3.398438 0.859375 -4.984375 L 0.859375 -6.15625 L 3.015625 -6.15625 L 3.015625 -4.859375 C 3.015625 -3.910156 3.210938 -3.175781 3.609375 -2.65625 C 4.003906 -2.144531 4.617188 -1.890625 5.453125 -1.890625 C 6.273438 -1.890625 6.882812 -2.144531 7.28125 -2.65625 C 7.675781 -3.175781 7.875 -3.910156 7.875 -4.859375 C 7.875 -5.628906 7.703125 -6.296875 7.359375 -6.859375 C 7.015625 -7.421875 6.582031 -7.941406 6.0625 -8.421875 C 5.550781 -8.910156 5 -9.382812 4.40625 -9.84375 C 3.820312 -10.3125 3.269531 -10.820312 2.75 -11.375 C 2.238281 -11.925781 1.8125 -12.550781 1.46875 -13.25 C 1.125 -13.957031 0.953125 -14.796875 0.953125 -15.765625 C 0.953125 -17.359375 1.328125 -18.617188 2.078125 -19.546875 C 2.828125 -20.472656 3.984375 -20.9375 5.546875 -20.9375 Z M 5.546875 -20.9375 "/></g></g></g><g fill="#a29745" fill-opacity="1"><g transform="translate(115.935262, 44.049653)"><g><path d="M 8.5625 -11.546875 L 8.5625 -9.484375 L 3.5 -9.484375 L 3.5 -2.109375 L 9.71875 -2.109375 L 9.71875 0 L 1.1875 0 L 1.1875 -20.734375 L 9.71875 -20.734375 L 9.71875 -18.640625 L 3.5 -18.640625 L 3.5 -11.546875 Z M 8.5625 -11.546875 "/></g></g></g><g fill="#a29745" fill-opacity="1"><g transform="translate(126.594819, 44.049653)"><g><path d="M 5.8125 -20.734375 C 7.445312 -20.734375 8.625 -20.328125 9.34375 -19.515625 C 10.0625 -18.710938 10.421875 -17.539062 10.421875 -16 L 10.421875 -14.3125 C 10.421875 -13.164062 10.210938 -12.234375 9.796875 -11.515625 C 9.390625 -10.804688 8.738281 -10.316406 7.84375 -10.046875 C 8.789062 -9.765625 9.460938 -9.253906 9.859375 -8.515625 C 10.253906 -7.773438 10.453125 -6.84375 10.453125 -5.71875 L 10.453125 -2.484375 C 10.453125 -2.035156 10.472656 -1.597656 10.515625 -1.171875 C 10.554688 -0.742188 10.675781 -0.351562 10.875 0 L 8.53125 0 C 8.394531 -0.289062 8.296875 -0.609375 8.234375 -0.953125 C 8.171875 -1.304688 8.140625 -1.828125 8.140625 -2.515625 L 8.140625 -5.78125 C 8.140625 -6.945312 7.878906 -7.75 7.359375 -8.1875 C 6.835938 -8.632812 6.09375 -8.859375 5.125 -8.859375 L 3.5 -8.859375 L 3.5 0 L 1.1875 0 L 1.1875 -20.734375 Z M 5.21875 -10.96875 C 6.144531 -10.96875 6.863281 -11.15625 7.375 -11.53125 C 7.882812 -11.914062 8.140625 -12.675781 8.140625 -13.8125 L 8.140625 -15.796875 C 8.140625 -16.742188 7.957031 -17.453125 7.59375 -17.921875 C 7.226562 -18.398438 6.613281 -18.640625 5.75 -18.640625 L 3.5 -18.640625 L 3.5 -10.96875 Z M 5.21875 -10.96875 "/></g></g></g><g fill="#a29745" fill-opacity="1"><g transform="translate(138.262182, 44.049653)"><g/></g></g></svg>