<svg xmlns="http://www.w3.org/2000/svg" xmlns:xlink="http://www.w3.org/1999/xlink" width="200" zoomAndPan="magnify" viewBox="0 0 150 74.999997" height="100" preserveAspectRatio="xMidYMid meet" version="1.0"><defs><g/></defs><rect x="-15" width="180" fill="#ffffff" y="-7.5" height="89.999996" fill-opacity="1"/><rect x="-15" width="180" fill="#f4efd0" y="-7.5" height="89.999996" fill-opacity="1"/><g fill="#a45824" fill-opacity="1"><g transform="translate(2.194532, 47.02133)"><g><path d="M 5.9375 -22.453125 C 7.632812 -22.453125 8.882812 -21.945312 9.6875 -20.9375 C 10.488281 -19.9375 10.890625 -18.59375 10.890625 -16.90625 L 10.890625 -16.296875 L 8.546875 -16.296875 L 8.546875 -17.03125 C 8.546875 -18.039062 8.34375 -18.820312 7.9375 -19.375 C 7.539062 -19.925781 6.894531 -20.203125 6 -20.203125 C 5.113281 -20.203125 4.46875 -19.925781 4.0625 -19.375 C 3.664062 -18.820312 3.46875 -18.050781 3.46875 -17.0625 C 3.46875 -16.226562 3.648438 -15.503906 4.015625 -14.890625 C 4.390625 -14.285156 4.847656 -13.722656 5.390625 -13.203125 C 5.941406 -12.679688 6.539062 -12.171875 7.1875 -11.671875 C 7.832031 -11.171875 8.429688 -10.625 8.984375 -10.03125 C 9.535156 -9.445312 9.992188 -8.773438 10.359375 -8.015625 C 10.734375 -7.265625 10.921875 -6.375 10.921875 -5.34375 C 10.921875 -3.644531 10.515625 -2.289062 9.703125 -1.28125 C 8.890625 -0.28125 7.625 0.21875 5.90625 0.21875 C 4.1875 0.21875 2.925781 -0.28125 2.125 -1.28125 C 1.320312 -2.289062 0.921875 -3.644531 0.921875 -5.34375 L 0.921875 -6.609375 L 3.234375 -6.609375 L 3.234375 -5.203125 C 3.234375 -4.191406 3.445312 -3.410156 3.875 -2.859375 C 4.300781 -2.304688 4.957031 -2.03125 5.84375 -2.03125 C 6.726562 -2.03125 7.382812 -2.304688 7.8125 -2.859375 C 8.238281 -3.410156 8.453125 -4.191406 8.453125 -5.203125 C 8.453125 -6.035156 8.265625 -6.753906 7.890625 -7.359375 C 7.523438 -7.960938 7.066406 -8.519531 6.515625 -9.03125 C 5.960938 -9.550781 5.367188 -10.0625 4.734375 -10.5625 C 4.097656 -11.0625 3.503906 -11.609375 2.953125 -12.203125 C 2.398438 -12.796875 1.9375 -13.46875 1.5625 -14.21875 C 1.195312 -14.96875 1.015625 -15.863281 1.015625 -16.90625 C 1.015625 -18.613281 1.414062 -19.960938 2.21875 -20.953125 C 3.03125 -21.953125 4.269531 -22.453125 5.9375 -22.453125 Z M 5.9375 -22.453125 "/></g></g></g><g fill="#a45824" fill-opacity="1"><g transform="translate(14.008478, 47.02133)"><g><path d="M 3.78125 -4.484375 L 2.921875 0 L 0.640625 0 L 4.890625 -22.234375 L 8.484375 -22.234375 L 12.734375 0 L 10.265625 0 L 9.40625 -4.484375 Z M 4.09375 -6.609375 L 9.046875 -6.609375 L 6.546875 -19.4375 Z M 4.09375 -6.609375 "/></g></g></g><g fill="#a45824" fill-opacity="1"><g transform="translate(27.410322, 47.02133)"><g><path d="M 6.21875 -22.234375 C 7.976562 -22.234375 9.242188 -21.796875 10.015625 -20.921875 C 10.796875 -20.054688 11.1875 -18.800781 11.1875 -17.15625 L 11.1875 -15.34375 C 11.1875 -14.113281 10.960938 -13.117188 10.515625 -12.359375 C 10.066406 -11.597656 9.367188 -11.066406 8.421875 -10.765625 C 9.429688 -10.472656 10.148438 -9.925781 10.578125 -9.125 C 11.003906 -8.332031 11.21875 -7.332031 11.21875 -6.125 L 11.21875 -2.671875 C 11.21875 -2.179688 11.238281 -1.707031 11.28125 -1.25 C 11.320312 -0.800781 11.445312 -0.382812 11.65625 0 L 9.15625 0 C 9 -0.3125 8.890625 -0.65625 8.828125 -1.03125 C 8.765625 -1.40625 8.734375 -1.960938 8.734375 -2.703125 L 8.734375 -6.1875 C 8.734375 -7.4375 8.453125 -8.300781 7.890625 -8.78125 C 7.328125 -9.257812 6.53125 -9.5 5.5 -9.5 L 3.75 -9.5 L 3.75 0 L 1.265625 0 L 1.265625 -22.234375 Z M 5.59375 -11.75 C 6.582031 -11.75 7.351562 -11.953125 7.90625 -12.359375 C 8.457031 -12.773438 8.734375 -13.585938 8.734375 -14.796875 L 8.734375 -16.9375 C 8.734375 -17.945312 8.535156 -18.707031 8.140625 -19.21875 C 7.753906 -19.726562 7.09375 -19.984375 6.15625 -19.984375 L 3.75 -19.984375 L 3.75 -11.75 Z M 5.59375 -11.75 "/></g></g></g><g fill="#a45824" fill-opacity="1"><g transform="translate(39.922947, 47.02133)"><g><path d="M 3.78125 -4.484375 L 2.921875 0 L 0.640625 0 L 4.890625 -22.234375 L 8.484375 -22.234375 L 12.734375 0 L 10.265625 0 L 9.40625 -4.484375 Z M 4.09375 -6.609375 L 9.046875 -6.609375 L 6.546875 -19.4375 Z M 4.09375 -6.609375 "/></g></g></g><g fill="#a45824" fill-opacity="1"><g transform="translate(53.324791, 47.02133)"><g/></g></g><g fill="#a45824" fill-opacity="1"><g transform="translate(58.247268, 47.02133)"><g><path d="M 6.0625 -22.453125 C 7.78125 -22.453125 9.046875 -21.941406 9.859375 -20.921875 C 10.679688 -19.910156 11.09375 -18.5625 11.09375 -16.875 L 11.09375 -14.96875 L 8.734375 -14.96875 L 8.734375 -17 C 8.734375 -18.007812 8.523438 -18.796875 8.109375 -19.359375 C 7.703125 -19.921875 7.039062 -20.203125 6.125 -20.203125 C 5.238281 -20.203125 4.582031 -19.921875 4.15625 -19.359375 C 3.738281 -18.796875 3.53125 -18.007812 3.53125 -17 L 3.53125 -5.234375 C 3.53125 -4.222656 3.738281 -3.4375 4.15625 -2.875 C 4.582031 -2.3125 5.238281 -2.03125 6.125 -2.03125 C 7.039062 -2.03125 7.703125 -2.3125 8.109375 -2.875 C 8.523438 -3.4375 8.734375 -4.222656 8.734375 -5.234375 L 8.734375 -9.6875 L 6.453125 -9.6875 L 6.453125 -11.90625 L 11.09375 -11.90625 L 11.09375 -5.375 C 11.09375 -3.675781 10.679688 -2.316406 9.859375 -1.296875 C 9.046875 -0.285156 7.78125 0.21875 6.0625 0.21875 C 4.375 0.21875 3.117188 -0.285156 2.296875 -1.296875 C 1.484375 -2.316406 1.078125 -3.675781 1.078125 -5.375 L 1.078125 -16.875 C 1.078125 -17.71875 1.175781 -18.484375 1.375 -19.171875 C 1.582031 -19.859375 1.890625 -20.445312 2.296875 -20.9375 C 2.710938 -21.425781 3.234375 -21.800781 3.859375 -22.0625 C 4.484375 -22.320312 5.21875 -22.453125 6.0625 -22.453125 Z M 6.0625 -22.453125 "/></g></g></g><g fill="#a45824" fill-opacity="1"><g transform="translate(70.410554, 47.02133)"><g><path d="M 6.21875 -22.234375 C 7.976562 -22.234375 9.242188 -21.796875 10.015625 -20.921875 C 10.796875 -20.054688 11.1875 -18.800781 11.1875 -17.15625 L 11.1875 -15.34375 C 11.1875 -14.113281 10.960938 -13.117188 10.515625 -12.359375 C 10.066406 -11.597656 9.367188 -11.066406 8.421875 -10.765625 C 9.429688 -10.472656 10.148438 -9.925781 10.578125 -9.125 C 11.003906 -8.332031 11.21875 -7.332031 11.21875 -6.125 L 11.21875 -2.671875 C 11.21875 -2.179688 11.238281 -1.707031 11.28125 -1.25 C 11.320312 -0.800781 11.445312 -0.382812 11.65625 0 L 9.15625 0 C 9 -0.3125 8.890625 -0.65625 8.828125 -1.03125 C 8.765625 -1.40625 8.734375 -1.960938 8.734375 -2.703125 L 8.734375 -6.1875 C 8.734375 -7.4375 8.453125 -8.300781 7.890625 -8.78125 C 7.328125 -9.257812 6.53125 -9.5 5.5 -9.5 L 3.75 -9.5 L 3.75 0 L 1.265625 0 L 1.265625 -22.234375 Z M 5.59375 -11.75 C 6.582031 -11.75 7.351562 -11.953125 7.90625 -12.359375 C 8.457031 -12.773438 8.734375 -13.585938 8.734375 -14.796875 L 8.734375 -16.9375 C 8.734375 -17.945312 8.535156 -18.707031 8.140625 -19.21875 C 7.753906 -19.726562 7.09375 -19.984375 6.15625 -19.984375 L 3.75 -19.984375 L 3.75 -11.75 Z M 5.59375 -11.75 "/></g></g></g><g fill="#a45824" fill-opacity="1"><g transform="translate(82.923178, 47.02133)"><g><path d="M 1.078125 -16.875 C 1.078125 -18.582031 1.492188 -19.9375 2.328125 -20.9375 C 3.171875 -21.945312 4.445312 -22.453125 6.15625 -22.453125 C 7.875 -22.453125 9.15625 -21.945312 10 -20.9375 C 10.851562 -19.9375 11.28125 -18.582031 11.28125 -16.875 L 11.28125 -5.375 C 11.28125 -3.675781 10.851562 -2.316406 10 -1.296875 C 9.15625 -0.285156 7.875 0.21875 6.15625 0.21875 C 4.445312 0.21875 3.171875 -0.285156 2.328125 -1.296875 C 1.492188 -2.316406 1.078125 -3.675781 1.078125 -5.375 Z M 3.53125 -5.234375 C 3.53125 -4.222656 3.742188 -3.4375 4.171875 -2.875 C 4.609375 -2.3125 5.269531 -2.03125 6.15625 -2.03125 C 7.070312 -2.03125 7.738281 -2.3125 8.15625 -2.875 C 8.582031 -3.4375 8.796875 -4.222656 8.796875 -5.234375 L 8.796875 -17 C 8.796875 -18.007812 8.582031 -18.796875 8.15625 -19.359375 C 7.738281 -19.921875 7.070312 -20.203125 6.15625 -20.203125 C 5.269531 -20.203125 4.609375 -19.921875 4.171875 -19.359375 C 3.742188 -18.796875 3.53125 -18.007812 3.53125 -17 Z M 3.53125 -5.234375 "/></g></g></g><g fill="#a45824" fill-opacity="1"><g transform="translate(95.277005, 47.02133)"><g><path d="M 5.9375 -22.453125 C 7.632812 -22.453125 8.882812 -21.945312 9.6875 -20.9375 C 10.488281 -19.9375 10.890625 -18.59375 10.890625 -16.90625 L 10.890625 -16.296875 L 8.546875 -16.296875 L 8.546875 -17.03125 C 8.546875 -18.039062 8.34375 -18.820312 7.9375 -19.375 C 7.539062 -19.925781 6.894531 -20.203125 6 -20.203125 C 5.113281 -20.203125 4.46875 -19.925781 4.0625 -19.375 C 3.664062 -18.820312 3.46875 -18.050781 3.46875 -17.0625 C 3.46875 -16.226562 3.648438 -15.503906 4.015625 -14.890625 C 4.390625 -14.285156 4.847656 -13.722656 5.390625 -13.203125 C 5.941406 -12.679688 6.539062 -12.171875 7.1875 -11.671875 C 7.832031 -11.171875 8.429688 -10.625 8.984375 -10.03125 C 9.535156 -9.445312 9.992188 -8.773438 10.359375 -8.015625 C 10.734375 -7.265625 10.921875 -6.375 10.921875 -5.34375 C 10.921875 -3.644531 10.515625 -2.289062 9.703125 -1.28125 C 8.890625 -0.28125 7.625 0.21875 5.90625 0.21875 C 4.1875 0.21875 2.925781 -0.28125 2.125 -1.28125 C 1.320312 -2.289062 0.921875 -3.644531 0.921875 -5.34375 L 0.921875 -6.609375 L 3.234375 -6.609375 L 3.234375 -5.203125 C 3.234375 -4.191406 3.445312 -3.410156 3.875 -2.859375 C 4.300781 -2.304688 4.957031 -2.03125 5.84375 -2.03125 C 6.726562 -2.03125 7.382812 -2.304688 7.8125 -2.859375 C 8.238281 -3.410156 8.453125 -4.191406 8.453125 -5.203125 C 8.453125 -6.035156 8.265625 -6.753906 7.890625 -7.359375 C 7.523438 -7.960938 7.066406 -8.519531 6.515625 -9.03125 C 5.960938 -9.550781 5.367188 -10.0625 4.734375 -10.5625 C 4.097656 -11.0625 3.503906 -11.609375 2.953125 -12.203125 C 2.398438 -12.796875 1.9375 -13.46875 1.5625 -14.21875 C 1.195312 -14.96875 1.015625 -15.863281 1.015625 -16.90625 C 1.015625 -18.613281 1.414062 -19.960938 2.21875 -20.953125 C 3.03125 -21.953125 4.269531 -22.453125 5.9375 -22.453125 Z M 5.9375 -22.453125 "/></g></g></g><g fill="#a45824" fill-opacity="1"><g transform="translate(107.090952, 47.02133)"><g><path d="M 5.9375 -22.453125 C 7.632812 -22.453125 8.882812 -21.945312 9.6875 -20.9375 C 10.488281 -19.9375 10.890625 -18.59375 10.890625 -16.90625 L 10.890625 -16.296875 L 8.546875 -16.296875 L 8.546875 -17.03125 C 8.546875 -18.039062 8.34375 -18.820312 7.9375 -19.375 C 7.539062 -19.925781 6.894531 -20.203125 6 -20.203125 C 5.113281 -20.203125 4.46875 -19.925781 4.0625 -19.375 C 3.664062 -18.820312 3.46875 -18.050781 3.46875 -17.0625 C 3.46875 -16.226562 3.648438 -15.503906 4.015625 -14.890625 C 4.390625 -14.285156 4.847656 -13.722656 5.390625 -13.203125 C 5.941406 -12.679688 6.539062 -12.171875 7.1875 -11.671875 C 7.832031 -11.171875 8.429688 -10.625 8.984375 -10.03125 C 9.535156 -9.445312 9.992188 -8.773438 10.359375 -8.015625 C 10.734375 -7.265625 10.921875 -6.375 10.921875 -5.34375 C 10.921875 -3.644531 10.515625 -2.289062 9.703125 -1.28125 C 8.890625 -0.28125 7.625 0.21875 5.90625 0.21875 C 4.1875 0.21875 2.925781 -0.28125 2.125 -1.28125 C 1.320312 -2.289062 0.921875 -3.644531 0.921875 -5.34375 L 0.921875 -6.609375 L 3.234375 -6.609375 L 3.234375 -5.203125 C 3.234375 -4.191406 3.445312 -3.410156 3.875 -2.859375 C 4.300781 -2.304688 4.957031 -2.03125 5.84375 -2.03125 C 6.726562 -2.03125 7.382812 -2.304688 7.8125 -2.859375 C 8.238281 -3.410156 8.453125 -4.191406 8.453125 -5.203125 C 8.453125 -6.035156 8.265625 -6.753906 7.890625 -7.359375 C 7.523438 -7.960938 7.066406 -8.519531 6.515625 -9.03125 C 5.960938 -9.550781 5.367188 -10.0625 4.734375 -10.5625 C 4.097656 -11.0625 3.503906 -11.609375 2.953125 -12.203125 C 2.398438 -12.796875 1.9375 -13.46875 1.5625 -14.21875 C 1.195312 -14.96875 1.015625 -15.863281 1.015625 -16.90625 C 1.015625 -18.613281 1.414062 -19.960938 2.21875 -20.953125 C 3.03125 -21.953125 4.269531 -22.453125 5.9375 -22.453125 Z M 5.9375 -22.453125 "/></g></g></g><g fill="#a45824" fill-opacity="1"><g transform="translate(118.904898, 47.02133)"><g><path d="M 9.1875 -12.390625 L 9.1875 -10.171875 L 3.75 -10.171875 L 3.75 -2.25 L 10.421875 -2.25 L 10.421875 0 L 1.265625 0 L 1.265625 -22.234375 L 10.421875 -22.234375 L 10.421875 -19.984375 L 3.75 -19.984375 L 3.75 -12.390625 Z M 9.1875 -12.390625 "/></g></g></g><g fill="#a45824" fill-opacity="1"><g transform="translate(130.337749, 47.02133)"><g><path d="M 6.21875 -22.234375 C 7.976562 -22.234375 9.242188 -21.796875 10.015625 -20.921875 C 10.796875 -20.054688 11.1875 -18.800781 11.1875 -17.15625 L 11.1875 -15.34375 C 11.1875 -14.113281 10.960938 -13.117188 10.515625 -12.359375 C 10.066406 -11.597656 9.367188 -11.066406 8.421875 -10.765625 C 9.429688 -10.472656 10.148438 -9.925781 10.578125 -9.125 C 11.003906 -8.332031 11.21875 -7.332031 11.21875 -6.125 L 11.21875 -2.671875 C 11.21875 -2.179688 11.238281 -1.707031 11.28125 -1.25 C 11.320312 -0.800781 11.445312 -0.382812 11.65625 0 L 9.15625 0 C 9 -0.3125 8.890625 -0.65625 8.828125 -1.03125 C 8.765625 -1.40625 8.734375 -1.960938 8.734375 -2.703125 L 8.734375 -6.1875 C 8.734375 -7.4375 8.453125 -8.300781 7.890625 -8.78125 C 7.328125 -9.257812 6.53125 -9.5 5.5 -9.5 L 3.75 -9.5 L 3.75 0 L 1.265625 0 L 1.265625 -22.234375 Z M 5.59375 -11.75 C 6.582031 -11.75 7.351562 -11.953125 7.90625 -12.359375 C 8.457031 -12.773438 8.734375 -13.585938 8.734375 -14.796875 L 8.734375 -16.9375 C 8.734375 -17.945312 8.535156 -18.707031 8.140625 -19.21875 C 7.753906 -19.726562 7.09375 -19.984375 6.15625 -19.984375 L 3.75 -19.984375 L 3.75 -11.75 Z M 5.59375 -11.75 "/></g></g></g><g fill="#a45824" fill-opacity="1"><g transform="translate(142.851517, 47.02133)"><g/></g></g></svg>