<svg xmlns="http://www.w3.org/2000/svg" xmlns:xlink="http://www.w3.org/1999/xlink" width="200" zoomAndPan="magnify" viewBox="0 0 150 74.999997" height="100" preserveAspectRatio="xMidYMid meet" version="1.0"><defs><g/><clipPath id="a6ba003afc"><path d="M 25 19.960938 L 30 19.960938 L 30 32 L 25 32 Z M 25 19.960938 " clip-rule="nonzero"/></clipPath><clipPath id="4da68f86a5"><path d="M 19 19.960938 L 25 19.960938 L 25 32 L 19 32 Z M 19 19.960938 " clip-rule="nonzero"/></clipPath><clipPath id="fcf793b7ca"><path d="M 9.335938 29 L 22 29 L 22 35 L 9.335938 35 Z M 9.335938 29 " clip-rule="nonzero"/></clipPath><clipPath id="0cdab792fb"><path d="M 9.335938 35 L 22 35 L 22 41 L 9.335938 41 Z M 9.335938 35 " clip-rule="nonzero"/></clipPath><clipPath id="23cd9ca415"><path d="M 25 38 L 30 38 L 30 49.960938 L 25 49.960938 Z M 25 38 " clip-rule="nonzero"/></clipPath><clipPath id="45413e59b6"><path d="M 19 38 L 25 38 L 25 49.960938 L 19 49.960938 Z M 19 38 " clip-rule="nonzero"/></clipPath><clipPath id="aabd113ec5"><path d="M 28 35 L 40.085938 35 L 40.085938 41 L 28 41 Z M 28 35 " clip-rule="nonzero"/></clipPath><clipPath id="c5b6deedcf"><path d="M 28 29 L 40.085938 29 L 40.085938 35 L 28 35 Z M 28 29 " clip-rule="nonzero"/></clipPath></defs><rect x="-15" width="180" fill="#ffffff" y="-7.5" height="89.999996" fill-opacity="1"/><rect x="-15" width="180" fill="#f4efd0" y="-7.5" height="89.999996" fill-opacity="1"/><g fill="#a29745" fill-opacity="1"><g transform="translate(46.140736, 42.148248)"><g><path d="M 3.9375 -14.859375 C 5.050781 -14.859375 5.875 -14.523438 6.40625 -13.859375 C 6.9375 -13.191406 7.203125 -12.300781 7.203125 -11.1875 L 7.203125 -10.78125 L 5.65625 -10.78125 L 5.65625 -11.265625 C 5.65625 -11.929688 5.519531 -12.445312 5.25 -12.8125 C 4.988281 -13.175781 4.5625 -13.359375 3.96875 -13.359375 C 3.382812 -13.359375 2.957031 -13.175781 2.6875 -12.8125 C 2.425781 -12.445312 2.296875 -11.9375 2.296875 -11.28125 C 2.296875 -10.738281 2.414062 -10.265625 2.65625 -9.859375 C 2.90625 -9.453125 3.210938 -9.078125 3.578125 -8.734375 C 3.941406 -8.390625 4.335938 -8.050781 4.765625 -7.71875 C 5.191406 -7.394531 5.585938 -7.035156 5.953125 -6.640625 C 6.316406 -6.242188 6.617188 -5.796875 6.859375 -5.296875 C 7.109375 -4.804688 7.234375 -4.21875 7.234375 -3.53125 C 7.234375 -2.40625 6.960938 -1.507812 6.421875 -0.84375 C 5.878906 -0.1875 5.039062 0.140625 3.90625 0.140625 C 2.769531 0.140625 1.9375 -0.1875 1.40625 -0.84375 C 0.875 -1.507812 0.609375 -2.40625 0.609375 -3.53125 L 0.609375 -4.375 L 2.140625 -4.375 L 2.140625 -3.453125 C 2.140625 -2.773438 2.28125 -2.253906 2.5625 -1.890625 C 2.84375 -1.523438 3.273438 -1.34375 3.859375 -1.34375 C 4.453125 -1.34375 4.890625 -1.523438 5.171875 -1.890625 C 5.453125 -2.253906 5.59375 -2.773438 5.59375 -3.453125 C 5.59375 -3.992188 5.46875 -4.460938 5.21875 -4.859375 C 4.976562 -5.265625 4.675781 -5.640625 4.3125 -5.984375 C 3.945312 -6.328125 3.550781 -6.660156 3.125 -6.984375 C 2.707031 -7.316406 2.316406 -7.675781 1.953125 -8.0625 C 1.585938 -8.457031 1.28125 -8.90625 1.03125 -9.40625 C 0.789062 -9.90625 0.671875 -10.5 0.671875 -11.1875 C 0.671875 -12.3125 0.9375 -13.203125 1.46875 -13.859375 C 2 -14.523438 2.820312 -14.859375 3.9375 -14.859375 Z M 3.9375 -14.859375 "/></g></g></g><g fill="#a29745" fill-opacity="1"><g transform="translate(53.957929, 42.148248)"><g><path d="M 2.5 -2.96875 L 1.9375 0 L 0.421875 0 L 3.234375 -14.71875 L 5.609375 -14.71875 L 8.421875 0 L 6.78125 0 L 6.21875 -2.96875 Z M 2.71875 -4.375 L 5.984375 -4.375 L 4.328125 -12.859375 Z M 2.71875 -4.375 "/></g></g></g><g fill="#a29745" fill-opacity="1"><g transform="translate(62.82582, 42.148248)"><g><path d="M 4.125 -14.71875 C 5.28125 -14.71875 6.113281 -14.425781 6.625 -13.84375 C 7.132812 -13.269531 7.390625 -12.4375 7.390625 -11.34375 L 7.390625 -10.15625 C 7.390625 -9.34375 7.242188 -8.679688 6.953125 -8.171875 C 6.660156 -7.671875 6.195312 -7.320312 5.5625 -7.125 C 6.238281 -6.925781 6.71875 -6.5625 7 -6.03125 C 7.28125 -5.507812 7.421875 -4.851562 7.421875 -4.0625 L 7.421875 -1.765625 C 7.421875 -1.441406 7.429688 -1.128906 7.453125 -0.828125 C 7.484375 -0.523438 7.570312 -0.25 7.71875 0 L 6.046875 0 C 5.953125 -0.207031 5.882812 -0.429688 5.84375 -0.671875 C 5.800781 -0.921875 5.78125 -1.289062 5.78125 -1.78125 L 5.78125 -4.09375 C 5.78125 -4.925781 5.59375 -5.5 5.21875 -5.8125 C 4.851562 -6.125 4.328125 -6.28125 3.640625 -6.28125 L 2.484375 -6.28125 L 2.484375 0 L 0.84375 0 L 0.84375 -14.71875 Z M 3.703125 -7.78125 C 4.359375 -7.78125 4.867188 -7.914062 5.234375 -8.1875 C 5.597656 -8.457031 5.78125 -8.992188 5.78125 -9.796875 L 5.78125 -11.203125 C 5.78125 -11.867188 5.648438 -12.367188 5.390625 -12.703125 C 5.128906 -13.046875 4.691406 -13.21875 4.078125 -13.21875 L 2.484375 -13.21875 L 2.484375 -7.78125 Z M 3.703125 -7.78125 "/></g></g></g><g fill="#a29745" fill-opacity="1"><g transform="translate(71.105322, 42.148248)"><g><path d="M 2.5 -2.96875 L 1.9375 0 L 0.421875 0 L 3.234375 -14.71875 L 5.609375 -14.71875 L 8.421875 0 L 6.78125 0 L 6.21875 -2.96875 Z M 2.71875 -4.375 L 5.984375 -4.375 L 4.328125 -12.859375 Z M 2.71875 -4.375 "/></g></g></g><g fill="#a29745" fill-opacity="1"><g transform="translate(79.973214, 42.148248)"><g/></g></g><g fill="#a29745" fill-opacity="1"><g transform="translate(83.230377, 42.148248)"><g><path d="M 4.015625 -14.859375 C 5.148438 -14.859375 5.984375 -14.519531 6.515625 -13.84375 C 7.054688 -13.175781 7.328125 -12.28125 7.328125 -11.15625 L 7.328125 -9.890625 L 5.78125 -9.890625 L 5.78125 -11.25 C 5.78125 -11.914062 5.640625 -12.429688 5.359375 -12.796875 C 5.085938 -13.171875 4.65625 -13.359375 4.0625 -13.359375 C 3.46875 -13.359375 3.03125 -13.171875 2.75 -12.796875 C 2.46875 -12.429688 2.328125 -11.914062 2.328125 -11.25 L 2.328125 -3.46875 C 2.328125 -2.789062 2.46875 -2.265625 2.75 -1.890625 C 3.03125 -1.523438 3.46875 -1.34375 4.0625 -1.34375 C 4.65625 -1.34375 5.085938 -1.523438 5.359375 -1.890625 C 5.640625 -2.265625 5.78125 -2.789062 5.78125 -3.46875 L 5.78125 -6.40625 L 4.265625 -6.40625 L 4.265625 -7.875 L 7.328125 -7.875 L 7.328125 -3.546875 C 7.328125 -2.429688 7.054688 -1.535156 6.515625 -0.859375 C 5.984375 -0.191406 5.148438 0.140625 4.015625 0.140625 C 2.890625 0.140625 2.054688 -0.191406 1.515625 -0.859375 C 0.984375 -1.535156 0.71875 -2.429688 0.71875 -3.546875 L 0.71875 -11.15625 C 0.71875 -11.71875 0.78125 -12.222656 0.90625 -12.671875 C 1.039062 -13.128906 1.242188 -13.519531 1.515625 -13.84375 C 1.796875 -14.164062 2.140625 -14.414062 2.546875 -14.59375 C 2.960938 -14.769531 3.453125 -14.859375 4.015625 -14.859375 Z M 4.015625 -14.859375 "/></g></g></g><g fill="#a29745" fill-opacity="1"><g transform="translate(91.278724, 42.148248)"><g><path d="M 4.125 -14.71875 C 5.28125 -14.71875 6.113281 -14.425781 6.625 -13.84375 C 7.132812 -13.269531 7.390625 -12.4375 7.390625 -11.34375 L 7.390625 -10.15625 C 7.390625 -9.34375 7.242188 -8.679688 6.953125 -8.171875 C 6.660156 -7.671875 6.195312 -7.320312 5.5625 -7.125 C 6.238281 -6.925781 6.71875 -6.5625 7 -6.03125 C 7.28125 -5.507812 7.421875 -4.851562 7.421875 -4.0625 L 7.421875 -1.765625 C 7.421875 -1.441406 7.429688 -1.128906 7.453125 -0.828125 C 7.484375 -0.523438 7.570312 -0.25 7.71875 0 L 6.046875 0 C 5.953125 -0.207031 5.882812 -0.429688 5.84375 -0.671875 C 5.800781 -0.921875 5.78125 -1.289062 5.78125 -1.78125 L 5.78125 -4.09375 C 5.78125 -4.925781 5.59375 -5.5 5.21875 -5.8125 C 4.851562 -6.125 4.328125 -6.28125 3.640625 -6.28125 L 2.484375 -6.28125 L 2.484375 0 L 0.84375 0 L 0.84375 -14.71875 Z M 3.703125 -7.78125 C 4.359375 -7.78125 4.867188 -7.914062 5.234375 -8.1875 C 5.597656 -8.457031 5.78125 -8.992188 5.78125 -9.796875 L 5.78125 -11.203125 C 5.78125 -11.867188 5.648438 -12.367188 5.390625 -12.703125 C 5.128906 -13.046875 4.691406 -13.21875 4.078125 -13.21875 L 2.484375 -13.21875 L 2.484375 -7.78125 Z M 3.703125 -7.78125 "/></g></g></g><g fill="#a29745" fill-opacity="1"><g transform="translate(99.558227, 42.148248)"><g><path d="M 0.71875 -11.15625 C 0.71875 -12.289062 0.992188 -13.191406 1.546875 -13.859375 C 2.097656 -14.523438 2.941406 -14.859375 4.078125 -14.859375 C 5.210938 -14.859375 6.054688 -14.523438 6.609375 -13.859375 C 7.171875 -13.191406 7.453125 -12.289062 7.453125 -11.15625 L 7.453125 -3.546875 C 7.453125 -2.429688 7.171875 -1.535156 6.609375 -0.859375 C 6.054688 -0.191406 5.210938 0.140625 4.078125 0.140625 C 2.941406 0.140625 2.097656 -0.191406 1.546875 -0.859375 C 0.992188 -1.535156 0.71875 -2.429688 0.71875 -3.546875 Z M 2.328125 -3.46875 C 2.328125 -2.789062 2.46875 -2.265625 2.75 -1.890625 C 3.039062 -1.523438 3.484375 -1.34375 4.078125 -1.34375 C 4.679688 -1.34375 5.125 -1.523438 5.40625 -1.890625 C 5.6875 -2.265625 5.828125 -2.789062 5.828125 -3.46875 L 5.828125 -11.25 C 5.828125 -11.914062 5.6875 -12.429688 5.40625 -12.796875 C 5.125 -13.171875 4.679688 -13.359375 4.078125 -13.359375 C 3.484375 -13.359375 3.039062 -13.171875 2.75 -12.796875 C 2.46875 -12.429688 2.328125 -11.914062 2.328125 -11.25 Z M 2.328125 -3.46875 "/></g></g></g><g fill="#a29745" fill-opacity="1"><g transform="translate(107.732654, 42.148248)"><g><path d="M 3.9375 -14.859375 C 5.050781 -14.859375 5.875 -14.523438 6.40625 -13.859375 C 6.9375 -13.191406 7.203125 -12.300781 7.203125 -11.1875 L 7.203125 -10.78125 L 5.65625 -10.78125 L 5.65625 -11.265625 C 5.65625 -11.929688 5.519531 -12.445312 5.25 -12.8125 C 4.988281 -13.175781 4.5625 -13.359375 3.96875 -13.359375 C 3.382812 -13.359375 2.957031 -13.175781 2.6875 -12.8125 C 2.425781 -12.445312 2.296875 -11.9375 2.296875 -11.28125 C 2.296875 -10.738281 2.414062 -10.265625 2.65625 -9.859375 C 2.90625 -9.453125 3.210938 -9.078125 3.578125 -8.734375 C 3.941406 -8.390625 4.335938 -8.050781 4.765625 -7.71875 C 5.191406 -7.394531 5.585938 -7.035156 5.953125 -6.640625 C 6.316406 -6.242188 6.617188 -5.796875 6.859375 -5.296875 C 7.109375 -4.804688 7.234375 -4.21875 7.234375 -3.53125 C 7.234375 -2.40625 6.960938 -1.507812 6.421875 -0.84375 C 5.878906 -0.1875 5.039062 0.140625 3.90625 0.140625 C 2.769531 0.140625 1.9375 -0.1875 1.40625 -0.84375 C 0.875 -1.507812 0.609375 -2.40625 0.609375 -3.53125 L 0.609375 -4.375 L 2.140625 -4.375 L 2.140625 -3.453125 C 2.140625 -2.773438 2.28125 -2.253906 2.5625 -1.890625 C 2.84375 -1.523438 3.273438 -1.34375 3.859375 -1.34375 C 4.453125 -1.34375 4.890625 -1.523438 5.171875 -1.890625 C 5.453125 -2.253906 5.59375 -2.773438 5.59375 -3.453125 C 5.59375 -3.992188 5.46875 -4.460938 5.21875 -4.859375 C 4.976562 -5.265625 4.675781 -5.640625 4.3125 -5.984375 C 3.945312 -6.328125 3.550781 -6.660156 3.125 -6.984375 C 2.707031 -7.316406 2.316406 -7.675781 1.953125 -8.0625 C 1.585938 -8.457031 1.28125 -8.90625 1.03125 -9.40625 C 0.789062 -9.90625 0.671875 -10.5 0.671875 -11.1875 C 0.671875 -12.3125 0.9375 -13.203125 1.46875 -13.859375 C 2 -14.523438 2.820312 -14.859375 3.9375 -14.859375 Z M 3.9375 -14.859375 "/></g></g></g><g fill="#a29745" fill-opacity="1"><g transform="translate(115.549846, 42.148248)"><g><path d="M 3.9375 -14.859375 C 5.050781 -14.859375 5.875 -14.523438 6.40625 -13.859375 C 6.9375 -13.191406 7.203125 -12.300781 7.203125 -11.1875 L 7.203125 -10.78125 L 5.65625 -10.78125 L 5.65625 -11.265625 C 5.65625 -11.929688 5.519531 -12.445312 5.25 -12.8125 C 4.988281 -13.175781 4.5625 -13.359375 3.96875 -13.359375 C 3.382812 -13.359375 2.957031 -13.175781 2.6875 -12.8125 C 2.425781 -12.445312 2.296875 -11.9375 2.296875 -11.28125 C 2.296875 -10.738281 2.414062 -10.265625 2.65625 -9.859375 C 2.90625 -9.453125 3.210938 -9.078125 3.578125 -8.734375 C 3.941406 -8.390625 4.335938 -8.050781 4.765625 -7.71875 C 5.191406 -7.394531 5.585938 -7.035156 5.953125 -6.640625 C 6.316406 -6.242188 6.617188 -5.796875 6.859375 -5.296875 C 7.109375 -4.804688 7.234375 -4.21875 7.234375 -3.53125 C 7.234375 -2.40625 6.960938 -1.507812 6.421875 -0.84375 C 5.878906 -0.1875 5.039062 0.140625 3.90625 0.140625 C 2.769531 0.140625 1.9375 -0.1875 1.40625 -0.84375 C 0.875 -1.507812 0.609375 -2.40625 0.609375 -3.53125 L 0.609375 -4.375 L 2.140625 -4.375 L 2.140625 -3.453125 C 2.140625 -2.773438 2.28125 -2.253906 2.5625 -1.890625 C 2.84375 -1.523438 3.273438 -1.34375 3.859375 -1.34375 C 4.453125 -1.34375 4.890625 -1.523438 5.171875 -1.890625 C 5.453125 -2.253906 5.59375 -2.773438 5.59375 -3.453125 C 5.59375 -3.992188 5.46875 -4.460938 5.21875 -4.859375 C 4.976562 -5.265625 4.675781 -5.640625 4.3125 -5.984375 C 3.945312 -6.328125 3.550781 -6.660156 3.125 -6.984375 C 2.707031 -7.316406 2.316406 -7.675781 1.953125 -8.0625 C 1.585938 -8.457031 1.28125 -8.90625 1.03125 -9.40625 C 0.789062 -9.90625 0.671875 -10.5 0.671875 -11.1875 C 0.671875 -12.3125 0.9375 -13.203125 1.46875 -13.859375 C 2 -14.523438 2.820312 -14.859375 3.9375 -14.859375 Z M 3.9375 -14.859375 "/></g></g></g><g fill="#a29745" fill-opacity="1"><g transform="translate(123.367039, 42.148248)"><g><path d="M 6.078125 -8.203125 L 6.078125 -6.71875 L 2.484375 -6.71875 L 2.484375 -1.484375 L 6.890625 -1.484375 L 6.890625 0 L 0.84375 0 L 0.84375 -14.71875 L 6.890625 -14.71875 L 6.890625 -13.21875 L 2.484375 -13.21875 L 2.484375 -8.203125 Z M 6.078125 -8.203125 "/></g></g></g><g fill="#a29745" fill-opacity="1"><g transform="translate(130.932063, 42.148248)"><g><path d="M 4.125 -14.71875 C 5.28125 -14.71875 6.113281 -14.425781 6.625 -13.84375 C 7.132812 -13.269531 7.390625 -12.4375 7.390625 -11.34375 L 7.390625 -10.15625 C 7.390625 -9.34375 7.242188 -8.679688 6.953125 -8.171875 C 6.660156 -7.671875 6.195312 -7.320312 5.5625 -7.125 C 6.238281 -6.925781 6.71875 -6.5625 7 -6.03125 C 7.28125 -5.507812 7.421875 -4.851562 7.421875 -4.0625 L 7.421875 -1.765625 C 7.421875 -1.441406 7.429688 -1.128906 7.453125 -0.828125 C 7.484375 -0.523438 7.570312 -0.25 7.71875 0 L 6.046875 0 C 5.953125 -0.207031 5.882812 -0.429688 5.84375 -0.671875 C 5.800781 -0.921875 5.78125 -1.289062 5.78125 -1.78125 L 5.78125 -4.09375 C 5.78125 -4.925781 5.59375 -5.5 5.21875 -5.8125 C 4.851562 -6.125 4.328125 -6.28125 3.640625 -6.28125 L 2.484375 -6.28125 L 2.484375 0 L 0.84375 0 L 0.84375 -14.71875 Z M 3.703125 -7.78125 C 4.359375 -7.78125 4.867188 -7.914062 5.234375 -8.1875 C 5.597656 -8.457031 5.78125 -8.992188 5.78125 -9.796875 L 5.78125 -11.203125 C 5.78125 -11.867188 5.648438 -12.367188 5.390625 -12.703125 C 5.128906 -13.046875 4.691406 -13.21875 4.078125 -13.21875 L 2.484375 -13.21875 L 2.484375 -7.78125 Z M 3.703125 -7.78125 "/></g></g></g><g fill="#a29745" fill-opacity="1"><g transform="translate(139.212322, 42.148248)"><g/></g></g><g clip-path="url(#a6ba003afc)"><path fill="#a29745" d="M 26.203125 30.59375 L 26.203125 28.441406 L 28.015625 27.46875 C 28.613281 27.144531 29.089844 26.691406 29.414062 26.148438 C 29.738281 25.609375 29.914062 24.898438 29.914062 24.21875 L 29.914062 19.964844 L 29.425781 20.246094 L 27.359375 21.425781 C 26.789062 21.753906 26.335938 22.207031 26.027344 22.738281 C 25.71875 23.273438 25.550781 24.3125 25.550781 24.972656 L 25.550781 26.964844 L 25.859375 26.796875 C 26.078125 26.683594 26.207031 26.46875 26.207031 26.222656 L 26.207031 24.972656 C 26.207031 24.425781 26.339844 23.921875 26.589844 23.488281 C 26.84375 23.054688 27.214844 22.683594 27.6875 22.414062 L 29.269531 21.507812 L 29.269531 24.21875 C 29.269531 24.777344 29.125 25.300781 28.863281 25.742188 C 28.597656 26.183594 28.207031 26.554688 27.714844 26.816406 L 25.902344 27.789062 C 25.683594 27.90625 25.554688 28.117188 25.554688 28.367188 L 25.554688 31.332031 L 25.863281 31.167969 C 26.078125 31.054688 26.203125 30.84375 26.203125 30.59375 Z M 26.203125 30.59375 " fill-opacity="1" fill-rule="nonzero"/></g><g clip-path="url(#4da68f86a5)"><path fill="#a29745" d="M 21.703125 27.472656 L 23.515625 28.445312 L 23.515625 30.597656 C 23.515625 30.847656 23.640625 31.058594 23.859375 31.175781 L 24.167969 31.339844 L 24.167969 28.371094 C 24.167969 28.125 24.039062 27.910156 23.824219 27.796875 L 22.007812 26.824219 C 21.515625 26.558594 21.128906 26.191406 20.863281 25.746094 C 20.597656 25.308594 20.457031 24.785156 20.457031 24.226562 L 20.457031 21.515625 L 22.035156 22.421875 C 22.507812 22.691406 22.878906 23.0625 23.132812 23.496094 C 23.382812 23.929688 23.519531 24.433594 23.519531 24.976562 L 23.519531 26.226562 C 23.519531 26.476562 23.648438 26.6875 23.863281 26.804688 L 24.171875 26.96875 L 24.171875 24.976562 C 24.171875 24.316406 24.007812 23.28125 23.699219 22.746094 C 23.386719 22.210938 22.9375 21.757812 22.363281 21.433594 L 20.296875 20.253906 L 19.808594 19.972656 L 19.808594 24.226562 C 19.808594 24.902344 19.984375 25.613281 20.3125 26.15625 C 20.628906 26.695312 21.101562 27.148438 21.703125 27.472656 Z M 21.703125 27.472656 " fill-opacity="1" fill-rule="nonzero"/></g><path fill="#a29745" d="M 16.554688 29.371094 L 17.511719 29.925781 L 18.28125 30.367188 L 18.292969 30.019531 C 18.296875 29.773438 18.179688 29.554688 17.964844 29.429688 L 17.839844 29.359375 L 16.882812 28.804688 C 16.410156 28.535156 16.039062 28.164062 15.789062 27.730469 C 15.539062 27.296875 15.40625 26.789062 15.410156 26.242188 L 15.414062 24.421875 L 17.761719 25.777344 C 18.246094 26.058594 18.625 26.441406 18.878906 26.890625 C 19.128906 27.34375 19.257812 27.863281 19.238281 28.421875 L 19.171875 30.484375 C 19.164062 30.730469 19.285156 30.949219 19.496094 31.070312 L 22.070312 32.554688 L 22.078125 32.199219 C 22.085938 31.953125 21.96875 31.738281 21.753906 31.613281 L 19.886719 30.539062 L 19.953125 28.480469 C 19.976562 27.804688 19.820312 27.164062 19.511719 26.609375 C 19.203125 26.058594 18.675781 25.550781 18.089844 25.210938 L 15.253906 23.574219 L 14.402344 23.085938 L 14.398438 23.648438 L 14.390625 26.027344 C 14.386719 26.6875 14.550781 27.304688 14.855469 27.839844 C 15.167969 28.378906 15.980469 29.039062 16.554688 29.371094 Z M 16.554688 29.371094 " fill-opacity="1" fill-rule="nonzero"/><g clip-path="url(#fcf793b7ca)"><path fill="#a29745" d="M 13.03125 33.972656 C 13.617188 34.3125 14.316406 34.511719 14.949219 34.503906 C 15.585938 34.496094 16.214844 34.3125 16.792969 33.953125 L 18.542969 32.867188 L 20.410156 33.945312 C 20.621094 34.066406 20.871094 34.0625 21.078125 33.9375 L 21.378906 33.75 L 18.804688 32.265625 C 18.59375 32.144531 18.34375 32.148438 18.136719 32.277344 L 16.382812 33.363281 C 15.910156 33.65625 15.394531 33.808594 14.878906 33.816406 C 14.363281 33.824219 13.84375 33.6875 13.359375 33.410156 L 11.011719 32.054688 L 12.582031 31.140625 C 13.054688 30.867188 13.558594 30.726562 14.058594 30.726562 C 14.5625 30.726562 15.066406 30.863281 15.539062 31.132812 L 16.496094 31.6875 L 16.621094 31.757812 C 16.835938 31.882812 17.082031 31.875 17.292969 31.746094 L 17.589844 31.5625 L 16.820312 31.121094 L 15.863281 30.566406 C 15.289062 30.238281 14.3125 29.863281 13.691406 29.863281 C 13.074219 29.867188 12.457031 30.03125 11.886719 30.363281 L 9.824219 31.5625 L 9.335938 31.847656 L 10.1875 32.339844 Z M 13.03125 33.972656 " fill-opacity="1" fill-rule="nonzero"/></g><path fill="#a29745" d="M 19.882812 39.386719 L 21.75 38.308594 C 21.964844 38.1875 22.085938 37.96875 22.074219 37.722656 L 22.066406 37.371094 L 19.496094 38.855469 C 19.285156 38.980469 19.164062 39.195312 19.167969 39.441406 L 19.234375 41.5 C 19.25 42.054688 19.125 42.582031 18.875 43.03125 C 18.625 43.484375 18.242188 43.867188 17.757812 44.148438 L 15.410156 45.5 L 15.40625 43.683594 C 15.402344 43.136719 15.539062 42.632812 15.785156 42.195312 C 16.035156 41.761719 16.40625 41.390625 16.878906 41.117188 L 17.835938 40.566406 L 17.960938 40.496094 C 18.175781 40.371094 18.296875 40.15625 18.289062 39.90625 L 18.277344 39.554688 L 17.507812 40 L 16.550781 40.550781 C 15.976562 40.878906 15.164062 41.542969 14.855469 42.082031 C 14.546875 42.617188 14.386719 43.230469 14.390625 43.894531 L 14.398438 46.273438 L 14.402344 46.835938 L 15.253906 46.34375 L 18.089844 44.710938 C 18.675781 44.371094 19.199219 43.863281 19.507812 43.308594 C 19.816406 42.757812 19.972656 42.117188 19.949219 41.441406 Z M 19.882812 39.386719 " fill-opacity="1" fill-rule="nonzero"/><g clip-path="url(#0cdab792fb)"><path fill="#a29745" d="M 16.820312 38.808594 L 17.589844 38.363281 L 17.292969 38.179688 C 17.082031 38.050781 16.835938 38.046875 16.621094 38.171875 L 16.496094 38.242188 L 15.539062 38.792969 C 15.066406 39.066406 14.558594 39.203125 14.058594 39.199219 C 13.558594 39.199219 13.054688 39.0625 12.582031 38.785156 L 11.011719 37.871094 L 13.359375 36.515625 C 13.84375 36.234375 14.363281 36.101562 14.878906 36.109375 C 15.394531 36.117188 15.914062 36.269531 16.382812 36.566406 L 18.136719 37.652344 C 18.34375 37.785156 18.59375 37.785156 18.804688 37.664062 L 21.378906 36.179688 L 21.078125 35.992188 C 20.871094 35.863281 20.621094 35.859375 20.410156 35.980469 L 18.542969 37.058594 L 16.792969 35.976562 C 16.21875 35.617188 15.585938 35.433594 14.949219 35.421875 C 14.316406 35.414062 13.617188 35.613281 13.03125 35.953125 L 10.195312 37.589844 L 9.34375 38.082031 L 9.832031 38.367188 L 11.890625 39.566406 C 12.460938 39.898438 13.078125 40.0625 13.699219 40.066406 C 14.3125 40.066406 15.296875 39.695312 15.871094 39.363281 Z M 16.820312 38.808594 " fill-opacity="1" fill-rule="nonzero"/></g><g clip-path="url(#23cd9ca415)"><path fill="#a29745" d="M 28.019531 42.453125 L 26.207031 41.480469 L 26.207031 39.328125 C 26.207031 39.082031 26.078125 38.867188 25.859375 38.753906 L 25.550781 38.585938 L 25.550781 41.554688 C 25.550781 41.800781 25.679688 42.015625 25.898438 42.132812 L 27.714844 43.101562 C 28.203125 43.367188 28.59375 43.738281 28.859375 44.179688 C 29.121094 44.621094 29.265625 45.144531 29.265625 45.703125 L 29.265625 48.410156 L 27.6875 47.507812 C 27.214844 47.238281 26.84375 46.871094 26.589844 46.4375 C 26.335938 46.003906 26.203125 45.5 26.203125 44.953125 L 26.203125 43.703125 C 26.203125 43.457031 26.074219 43.242188 25.855469 43.125 L 25.546875 42.960938 L 25.546875 44.953125 C 25.546875 45.613281 25.714844 46.648438 26.023438 47.1875 C 26.332031 47.722656 26.785156 48.171875 27.355469 48.496094 L 29.425781 49.679688 L 29.910156 49.960938 L 29.910156 45.707031 C 29.910156 45.027344 29.734375 44.320312 29.410156 43.773438 C 29.09375 43.230469 28.613281 42.773438 28.019531 42.453125 Z M 28.019531 42.453125 " fill-opacity="1" fill-rule="nonzero"/></g><g clip-path="url(#45413e59b6)"><path fill="#a29745" d="M 23.515625 39.328125 L 23.515625 41.484375 L 21.703125 42.457031 C 21.101562 42.773438 20.628906 43.230469 20.304688 43.773438 C 19.980469 44.320312 19.800781 45.027344 19.800781 45.707031 L 19.800781 49.960938 L 20.289062 49.679688 L 22.359375 48.496094 C 22.933594 48.171875 23.386719 47.71875 23.695312 47.1875 C 24.003906 46.648438 24.167969 45.613281 24.167969 44.953125 L 24.167969 42.960938 L 23.859375 43.125 C 23.644531 43.242188 23.515625 43.457031 23.515625 43.703125 L 23.515625 44.953125 C 23.515625 45.5 23.378906 46.003906 23.128906 46.4375 C 22.878906 46.871094 22.507812 47.238281 22.03125 47.507812 L 20.453125 48.410156 L 20.453125 45.703125 C 20.453125 45.144531 20.59375 44.621094 20.859375 44.179688 C 21.125 43.738281 21.511719 43.367188 22.003906 43.101562 L 23.820312 42.132812 C 24.039062 42.015625 24.167969 41.800781 24.167969 41.554688 L 24.167969 38.585938 L 23.859375 38.753906 C 23.644531 38.867188 23.515625 39.082031 23.515625 39.328125 Z M 23.515625 39.328125 " fill-opacity="1" fill-rule="nonzero"/></g><g clip-path="url(#aabd113ec5)"><path fill="#a29745" d="M 39.523438 37.585938 L 36.6875 35.953125 C 36.101562 35.613281 35.398438 35.410156 34.765625 35.417969 C 34.132812 35.429688 33.503906 35.613281 32.921875 35.972656 L 31.175781 37.054688 L 29.308594 35.980469 C 29.09375 35.855469 28.847656 35.855469 28.636719 35.988281 L 28.339844 36.175781 L 30.910156 37.660156 C 31.125 37.78125 31.371094 37.777344 31.582031 37.648438 L 33.332031 36.5625 C 33.808594 36.265625 34.324219 36.113281 34.835938 36.105469 C 35.351562 36.101562 35.875 36.234375 36.359375 36.515625 L 38.707031 37.867188 L 37.136719 38.785156 C 36.664062 39.058594 36.160156 39.195312 35.65625 39.195312 C 35.15625 39.195312 34.652344 39.0625 34.179688 38.789062 L 33.222656 38.238281 L 33.097656 38.167969 C 32.882812 38.042969 32.636719 38.046875 32.425781 38.175781 L 32.128906 38.359375 L 32.898438 38.804688 L 33.855469 39.355469 C 34.429688 39.683594 35.40625 40.0625 36.027344 40.0625 C 36.644531 40.058594 37.261719 39.890625 37.832031 39.558594 L 39.890625 38.359375 L 40.378906 38.074219 Z M 39.523438 37.585938 " fill-opacity="1" fill-rule="nonzero"/></g><path fill="#a29745" d="M 33.164062 40.550781 L 32.207031 40 L 31.4375 39.554688 L 31.429688 39.90625 C 31.421875 40.152344 31.542969 40.371094 31.753906 40.496094 L 31.878906 40.566406 L 32.839844 41.117188 C 33.308594 41.390625 33.683594 41.761719 33.929688 42.195312 C 34.179688 42.628906 34.3125 43.136719 34.308594 43.679688 L 34.300781 45.5 L 31.953125 44.144531 C 31.46875 43.863281 31.089844 43.480469 30.839844 43.027344 C 30.589844 42.578125 30.460938 42.054688 30.480469 41.496094 L 30.546875 39.4375 C 30.550781 39.191406 30.433594 38.972656 30.214844 38.851562 L 27.644531 37.367188 L 27.636719 37.71875 C 27.628906 37.96875 27.746094 38.183594 27.960938 38.304688 L 29.828125 39.382812 L 29.757812 41.441406 C 29.734375 42.117188 29.890625 42.757812 30.199219 43.308594 C 30.507812 43.863281 31.035156 44.371094 31.621094 44.710938 L 34.453125 46.34375 L 35.304688 46.835938 L 35.308594 46.273438 L 35.320312 43.894531 C 35.320312 43.230469 35.15625 42.617188 34.851562 42.082031 C 34.554688 41.542969 33.738281 40.882812 33.164062 40.550781 Z M 33.164062 40.550781 " fill-opacity="1" fill-rule="nonzero"/><path fill="#a29745" d="M 29.832031 30.539062 L 27.96875 31.613281 C 27.753906 31.738281 27.632812 31.953125 27.640625 32.199219 L 27.652344 32.554688 L 30.222656 31.070312 C 30.4375 30.945312 30.558594 30.726562 30.550781 30.484375 L 30.488281 28.421875 C 30.472656 27.863281 30.597656 27.34375 30.847656 26.890625 C 31.097656 26.441406 31.472656 26.058594 31.960938 25.777344 L 34.308594 24.421875 L 34.316406 26.242188 C 34.320312 26.789062 34.183594 27.292969 33.9375 27.730469 C 33.6875 28.164062 33.316406 28.53125 32.84375 28.804688 L 31.882812 29.359375 L 31.757812 29.429688 C 31.542969 29.554688 31.421875 29.769531 31.433594 30.015625 L 31.441406 30.363281 L 32.210938 29.921875 L 33.171875 29.367188 C 33.742188 29.039062 34.554688 28.375 34.863281 27.839844 C 35.171875 27.304688 35.335938 26.6875 35.332031 26.027344 L 35.320312 23.648438 L 35.320312 23.085938 L 34.46875 23.574219 L 31.632812 25.210938 C 31.046875 25.550781 30.523438 26.058594 30.214844 26.609375 C 29.90625 27.164062 29.75 27.804688 29.773438 28.480469 Z M 29.832031 30.539062 " fill-opacity="1" fill-rule="nonzero"/><g clip-path="url(#c5b6deedcf)"><path fill="#a29745" d="M 32.898438 31.117188 L 32.128906 31.5625 L 32.425781 31.742188 C 32.636719 31.871094 32.882812 31.878906 33.097656 31.753906 L 33.222656 31.683594 L 34.179688 31.128906 C 34.652344 30.859375 35.160156 30.71875 35.65625 30.722656 C 36.160156 30.722656 36.664062 30.863281 37.132812 31.136719 L 38.707031 32.050781 L 36.359375 33.40625 C 35.875 33.6875 35.351562 33.824219 34.835938 33.8125 C 34.324219 33.808594 33.804688 33.65625 33.332031 33.359375 L 31.582031 32.273438 C 31.371094 32.140625 31.125 32.136719 30.910156 32.261719 L 28.339844 33.746094 L 28.636719 33.929688 C 28.847656 34.058594 29.09375 34.0625 29.308594 33.9375 L 31.175781 32.863281 L 32.921875 33.945312 C 33.5 34.304688 34.132812 34.488281 34.765625 34.5 C 35.398438 34.507812 36.101562 34.308594 36.6875 33.964844 L 39.523438 32.328125 L 40.375 31.839844 L 39.886719 31.554688 L 37.824219 30.355469 C 37.257812 30.023438 36.640625 29.855469 36.019531 29.851562 C 35.402344 29.851562 34.421875 30.226562 33.847656 30.558594 Z M 32.898438 31.117188 " fill-opacity="1" fill-rule="nonzero"/></g></svg>